# xmcd
#
# Track frame offsets: 
#        300
#        10662
#        30765
#        43905
#        59205
#        70522
#        85555
#        97933
#        111174
#        125120
#
# Disc length: 1883 seconds
#
# Revision: 0
# Processed by: cddbd v1.5.2PL0 Copyright (c) Steve Scherf et al.
# Submitted via: ExactAudioCopy v0.95a3
#
DISCID=7a07570a
DTITLE=larry youngblood - life is what you make it
DYEAR=1900
DGENRE=Country
TTITLE0=there'll be no teardrops tonight
TTITLE1=i know she still loves me
TTITLE2=just playin' possum
TTITLE3=sometimes she forgets (dad's song)
TTITLE4=walking the floor over me
TTITLE5=blue sky over texas
TTITLE6=crazy arms
TTITLE7=i ain't never seen no one like you
TTITLE8=take these chains
TTITLE9=stand by me (momma's song)
EXTD=
EXTT0=
EXTT1=
EXTT2=
EXTT3=
EXTT4=
EXTT5=
EXTT6=
EXTT7=
EXTT8=
EXTT9=
PLAYORDER=
